<?xml version="1.0" encoding="iso-8859-1"?>
<!-- Generator: Adobe Illustrator 19.0.0, SVG Export Plug-In . SVG Version: 6.00 Build 0)  -->
<svg version="1.1" id="Capa_1" xmlns="http://www.w3.org/2000/svg" xmlns:xlink="http://www.w3.org/1999/xlink" x="0px" y="0px"
	 viewBox="0 0 54 54" style="enable-background:new 0 0 54 54;" xml:space="preserve">
<g>
	<path d="M49.5,22.5H47v-8c0-1.654-1.347-3-3.003-3H10.003C8.347,11.5,7,12.846,7,14.5v8H4.5c-2.481,0-4.5,2.019-4.5,4.501V36.5
		c0,0.552,0.448,1,1,1h7v4c0,0.552,0.448,1,1,1h4c0.379,0,0.725-0.214,0.894-0.553l2.724-5.447h20.764l2.724,5.447
		C40.275,42.286,40.621,42.5,41,42.5h4c0.552,0,1-0.448,1-1v-4h7c0.552,0,1-0.448,1-1v-9.499C54,24.519,51.981,22.5,49.5,22.5z
		 M16,34.5H9v-4h36v4h-7H16z M9,14.5c0-0.551,0.45-1,1.003-1h33.994c0.553,0,1.003,0.449,1.003,1v9v5H9v-5V14.5z M2,35.5v-8.499
		C2,25.622,3.122,24.5,4.5,24.5H7v5v6H2z M12.382,40.5H10v-4h4.382L12.382,40.5z M44,40.5h-2.382l-2-4H44V40.5z M52,35.5h-5v-6v-5
		h2.5c1.378,0,2.5,1.122,2.5,2.501V35.5z"/>
</g>
<g>
</g>
<g>
</g>
<g>
</g>
<g>
</g>
<g>
</g>
<g>
</g>
<g>
</g>
<g>
</g>
<g>
</g>
<g>
</g>
<g>
</g>
<g>
</g>
<g>
</g>
<g>
</g>
<g>
</g>
</svg>
