<?xml version="1.0" encoding="iso-8859-1"?>
<!-- Generator: Adobe Illustrator 19.0.0, SVG Export Plug-In . SVG Version: 6.00 Build 0)  -->
<svg version="1.1" id="Layer_1" xmlns="http://www.w3.org/2000/svg" xmlns:xlink="http://www.w3.org/1999/xlink" x="0px" y="0px"
	 viewBox="0 0 512 512" style="enable-background:new 0 0 512 512;" xml:space="preserve">
<g>
	<g>
		<path d="M495.304,189.217h-267.13v-22.261h100.174c6.147,0,11.13-4.984,11.13-11.13V11.13c0-6.147-4.984-11.13-11.13-11.13
			H105.739c-6.147,0-11.13,4.984-11.13,11.13v144.696c0,6.147,4.984,11.13,11.13,11.13h100.174v22.261H16.696
			c-6.147,0-11.13,4.984-11.13,11.13V512h22.261V211.478h456.348V512h22.261V200.348
			C506.435,194.201,501.451,189.217,495.304,189.217z M116.87,144.696V22.261h200.348v122.435H116.87z"/>
	</g>
</g>
<g>
	<g>
		<path d="M261.565,322.783H105.739c-6.147,0-11.13,4.984-11.13,11.13V512h22.261V400.696h133.565V512h22.261V333.913
			C272.696,327.766,267.712,322.783,261.565,322.783z M250.435,378.435H116.87v-33.391h133.565V378.435z"/>
	</g>
</g>
<g>
</g>
<g>
</g>
<g>
</g>
<g>
</g>
<g>
</g>
<g>
</g>
<g>
</g>
<g>
</g>
<g>
</g>
<g>
</g>
<g>
</g>
<g>
</g>
<g>
</g>
<g>
</g>
<g>
</g>
</svg>
