<?xml version="1.0" encoding="iso-8859-1"?>
<!-- Generator: Adobe Illustrator 19.0.0, SVG Export Plug-In . SVG Version: 6.00 Build 0)  -->
<svg version="1.1" id="Layer_1" xmlns="http://www.w3.org/2000/svg" xmlns:xlink="http://www.w3.org/1999/xlink" x="0px" y="0px"
	 viewBox="0 0 512 512" style="enable-background:new 0 0 512 512;" xml:space="preserve">
<g>
	<g>
		<path d="M373.013,103.059H99.173V61.858h51.399c5.632,0,10.199-4.567,10.199-10.199v-41.46C160.772,4.567,156.204,0,150.572,0
			H88.974c-5.632,0-10.199,4.567-10.199,10.199v92.86H49.883c-5.632,0-10.199,4.567-10.199,10.199v217.963
			c0,5.632,4.567,10.199,10.199,10.199h173.411v160.38c0,5.632,4.567,10.199,10.199,10.199h45.014
			c5.632,0,10.199-4.567,10.199-10.199V341.42h173.411c5.632,0,10.199-4.567,10.199-10.199v-128.86
			C472.316,147.605,427.768,103.059,373.013,103.059z M99.173,20.398h41.2V41.46h-41.2V20.398z M268.308,491.602h-24.616V341.42
			h24.616V491.602z M451.918,321.022H146.557V166.564c0-5.632-4.567-10.199-10.199-10.199s-10.199,4.567-10.199,10.199v154.458
			H60.082V123.457h18.693v22.97c0,5.632,4.567,10.199,10.199,10.199c5.632,0,10.199-4.567,10.199-10.199v-22.97h273.839
			c43.509,0,78.905,35.396,78.905,78.904V321.022z"/>
	</g>
</g>
<g>
	<g>
		<path d="M290.678,286.669h-12.171c-5.632,0-10.199,4.567-10.199,10.199s4.567,10.199,10.199,10.199h12.171
			c5.632,0,10.199-4.567,10.199-10.199S296.31,286.669,290.678,286.669z"/>
	</g>
</g>
<g>
	<g>
		<path d="M427.764,286.669h-97.31c-5.632,0-10.199,4.567-10.199,10.199s4.567,10.199,10.199,10.199h97.31
			c5.632,0,10.199-4.567,10.199-10.199S433.396,286.669,427.764,286.669z"/>
	</g>
</g>
<g>
</g>
<g>
</g>
<g>
</g>
<g>
</g>
<g>
</g>
<g>
</g>
<g>
</g>
<g>
</g>
<g>
</g>
<g>
</g>
<g>
</g>
<g>
</g>
<g>
</g>
<g>
</g>
<g>
</g>
</svg>
