<?xml version="1.0" encoding="iso-8859-1"?>
<!-- Generator: Adobe Illustrator 19.0.0, SVG Export Plug-In . SVG Version: 6.00 Build 0)  -->
<svg version="1.1" id="Layer_1" xmlns="http://www.w3.org/2000/svg" xmlns:xlink="http://www.w3.org/1999/xlink" x="0px" y="0px"
	 viewBox="0 0 512 512" style="enable-background:new 0 0 512 512;" xml:space="preserve">
<g>
	<g>
		<path d="M503.916,65.705h-77.848H248.156c-3.224,0-6.139,1.914-7.419,4.873l-22.781,52.639c-1.081,2.497-0.832,5.373,0.662,7.649
			c1.495,2.275,4.035,3.646,6.757,3.646h98.554v25.058H214.72l-24.685-37.58c-1.495-2.275-4.035-3.646-6.757-3.646H99.372H84.26
			H8.084c-4.465,0-8.084,3.618-8.084,8.084v22.322c0,4.466,3.62,8.084,8.084,8.084h34.982v281.376c0,4.466,3.62,8.084,8.084,8.084
			h75.302h276.836h100.628c4.465,0,8.084-3.618,8.084-8.084V73.789C512,69.324,508.38,65.705,503.916,65.705z M243.838,175.739
			h51.931v2.233c0,0.075-0.095,0.171-0.17,0.171h-51.59c-0.074,0-0.17-0.096-0.17-0.171V175.739z M118.368,430.126H59.235V148.751
			c0-4.466-3.62-8.084-8.084-8.084H16.168v-6.154H84.26h10.751l23.357,35.56V430.126z M114.354,134.513h64.563l16.459,25.058
			h-64.563L114.354,134.513z M134.536,175.74h93.133v2.233c0,9.009,7.33,16.34,16.339,16.34h51.59
			c9.009,0,16.339-7.331,16.339-16.34v-2.233h2.143v25.782c0,4.466,3.62,8.084,8.084,8.084h73.039v64.787H134.536V175.74z
			 M395.204,430.126H134.536v-66.334h260.667V430.126z M395.204,347.624H134.536v-20.448h260.667V347.624z M395.204,311.008H134.536
			v-20.448h260.667V311.008z M395.204,193.437h-64.955v-17.698h64.955V193.437z M340.097,159.571v-25.058h55.106v25.058H340.097z
			 M397.977,118.344H237.681l15.785-36.471h160.295L397.977,118.344z M495.832,430.126h-84.459v-66.334h84.459V430.126z
			 M495.832,347.624h-84.46v-20.448h0h84.459V347.624z M495.832,311.008h-84.459v-20.448h84.459V311.008z M495.832,274.392h-84.46
			V128.104l20.007-46.23h64.453V274.392z"/>
	</g>
</g>
<g>
	<g>
		<polygon points="264.355,91.083 255.599,109.134 310.802,109.134 319.558,91.083 		"/>
	</g>
</g>
<g>
	<g>
		<polygon points="349.619,85.937 344.684,97.344 362.713,97.344 367.649,85.937 		"/>
	</g>
</g>
<g>
	<g>
		<polygon points="342.29,102.873 337.354,114.279 355.383,114.279 360.32,102.873 		"/>
	</g>
</g>
<g>
	<g>
		<polygon points="379.916,85.937 374.979,97.344 393.009,97.344 397.946,85.937 		"/>
	</g>
</g>
<g>
	<g>
		<polygon points="372.586,102.873 367.649,114.279 385.679,114.279 390.615,102.873 		"/>
	</g>
</g>
<g>
</g>
<g>
</g>
<g>
</g>
<g>
</g>
<g>
</g>
<g>
</g>
<g>
</g>
<g>
</g>
<g>
</g>
<g>
</g>
<g>
</g>
<g>
</g>
<g>
</g>
<g>
</g>
<g>
</g>
</svg>
